<svg width="6" height="6" viewBox="0 0 6 6" fill="none" xmlns="http://www.w3.org/2000/svg">
<path d="M1.99684 0.419237C2.54534 0.235712 3.14051 0.248049 3.68093 0.454146C4.22135 0.660243 4.67359 1.04735 4.9606 1.5495C5.24761 2.05166 5.35162 2.6378 5.25491 3.20804C5.1582 3.77829 4.86677 4.29736 4.43025 4.67682C3.99374 5.05628 3.43915 5.27264 2.861 5.28904C2.28284 5.30544 1.71688 5.12087 1.25956 4.76677C0.802234 4.41267 0.481835 3.91095 0.352956 3.34711C0.224077 2.78326 0.294691 2.19217 0.552766 1.67455L1.4295 2.11168C1.27256 2.42646 1.22962 2.78592 1.30799 3.12881C1.38637 3.47171 1.58121 3.77682 1.85933 3.99216C2.13744 4.2075 2.48162 4.31974 2.83322 4.30977C3.18481 4.29979 3.52207 4.16822 3.78753 3.93746C4.05299 3.7067 4.23022 3.39103 4.28903 3.04424C4.34784 2.69746 4.28459 2.34101 4.11005 2.03563C3.93552 1.73025 3.66049 1.49484 3.33184 1.36951C3.00319 1.24417 2.64125 1.23667 2.30769 1.34828L1.99684 0.419237Z" fill="white"/>
</svg>
